<?xml version="1.0" encoding="utf-8"?>
<!-- Generator: Adobe Illustrator 21.1.0, SVG Export Plug-In . SVG Version: 6.00 Build 0)  -->
<svg version="1.1" id="Layer_1" xmlns="http://www.w3.org/2000/svg" xmlns:xlink="http://www.w3.org/1999/xlink" x="0px" y="0px"
	 viewBox="0 0 512 512" style="enable-background:new 0 0 512 512;" xml:space="preserve">
<style type="text/css">
	.st0{fill:#FFFFFF;}
</style>
<path class="st0" d="M256,417.1c-16.4,0-32.9-4.1-46.9-15.1L0,250.9V464c0,26.5,21.5,48,48,48h416c26.5,0,48-21.5,48-47.1v-214
	L302.9,402C288.9,412,272.4,417.1,256,417.1z M493.6,163c-8.8-7-17.2-13.5-29.6-22.9V96c0-26.5-21.5-48-48-48l-77.5,0
	c-3.1-2.2-5.9-4.2-9.1-6.5C312.6,29.1,279.3-0.4,256,0c-23.2-0.4-56.6,29.1-73.4,41.5c-3.2,2.2-6,4.2-9.1,6.5H96
	c-26.5,0-48,21.5-48,48v44.1C35.6,149.5,27.2,156,18.4,163C6.8,172,0,186,0,200.8v10.6l96,69.4V96h320v184.7l96-69.4v-10.5
	C512,186,505.3,172,493.6,163z M176,255.1h160c8.8,0,16-7.2,16-15.1c0-8.8-7.2-16-16-16H176c-8.8,0-16,7.2-16,16
	C160,248.8,167.2,255.1,176,255.1z M176,191.1h160c8.8,0,16-7.2,16-16c0-8.8-7.2-15.1-16-15.1H176c-8.8,0-16,7.2-16,15.1
	C160,184.8,167.2,191.1,176,191.1z"/>
</svg>
