<?xml version="1.0" encoding="utf-8"?>
<!-- Generator: Adobe Illustrator 21.1.0, SVG Export Plug-In . SVG Version: 6.00 Build 0)  -->
<svg version="1.1" id="Layer_1" xmlns="http://www.w3.org/2000/svg" xmlns:xlink="http://www.w3.org/1999/xlink" x="0px" y="0px"
	 viewBox="0 0 62.7 46.7" style="enable-background:new 0 0 62.7 46.7;" xml:space="preserve">
<style type="text/css">
	.st0{fill:#333333;}
</style>
<path class="st0" d="M31.3,40.1c-6.7,0-13.5,0-20.2,0c-2.6,0-4.1-1.5-4.1-4.1c0-8.4,0-16.7,0-25.1c0-2.6,1.5-4.1,4.1-4.1
	c13.5,0,27,0,40.5,0c2.6,0,4.1,1.5,4.1,4.1c0,8.4,0,16.7,0,25.1c0,2.6-1.5,4.1-4.1,4.1C44.8,40.1,38,40.1,31.3,40.1z M53.2,12.8
	c-0.1-0.1-0.1-0.1-0.2-0.2c-0.2,0.1-0.5,0.3-0.7,0.4c-6.9,4.4-13.6,9.2-20.1,14.1c-0.5,0.4-0.8,0.4-1.4,0
	c-6.7-4.9-13.5-9.7-20.5-14.1c-0.2-0.2-0.5-0.3-0.7-0.4c0,0.1-0.1,0.1-0.1,0.2c4.1,3.4,8.2,6.7,12.3,10.1C18,25.9,14.3,29,10.6,32
	c0,0.1,0.1,0.1,0.1,0.2c0.2-0.1,0.4-0.2,0.6-0.4c3.8-2.5,7.5-5,11.3-7.6c0.5-0.3,0.7-0.3,1.1,0c1.8,1.4,3.6,2.7,5.4,4.1
	c0.8,0.6,1.5,1.1,2.3,1.7c2.7-2,5.3-4.1,7.9-6.1c4,2.8,8.1,5.6,12.3,8.1c0.1-0.1,0.1-0.1,0.2-0.2c-3.7-3-7.3-6-10.9-9
	C45,19.5,49.1,16.2,53.2,12.8z"/>
</svg>
