<?xml version="1.0" encoding="utf-8"?>
<!-- Generator: Adobe Illustrator 21.1.0, SVG Export Plug-In . SVG Version: 6.00 Build 0)  -->
<svg version="1.1" id="Layer_1" xmlns="http://www.w3.org/2000/svg" xmlns:xlink="http://www.w3.org/1999/xlink" x="0px" y="0px"
	 viewBox="0 0 62.7 71.3" style="enable-background:new 0 0 62.7 71.3;" xml:space="preserve">
<style type="text/css">
	.st0{fill:#FFFFFF;}
	.st1{fill:#262626;}
</style>
<g>
	<path class="st0" d="M30.3,12.4c0.7,0,1.4,0,2.1,0c0.1,0,0.2,0,0.3,0c2,0.1,3.9,0.4,5.7,1c5.2,1.7,9.4,4.8,12.5,9.3
		c2.3,3.3,3.6,6.9,4,10.9c0.1,0.5,0.1,1,0.1,1.5c0,0.7,0,1.4,0,2.1c0,0.1,0,0.2,0,0.3c-0.1,1.3-0.3,2.7-0.6,4
		c-1.4,5.8-4.4,10.4-9.2,13.9c-3.4,2.5-7.2,4-11.5,4.4c-0.5,0.1-1,0.1-1.5,0.1c-0.7,0-1.4,0-2.1,0c-0.1,0-0.2,0-0.3,0
		c-2.4-0.1-4.6-0.6-6.8-1.4c-4.8-1.8-8.6-4.8-11.5-9c-2.2-3.3-3.6-6.9-4-10.9c-0.1-0.5-0.1-1-0.1-1.5c0-0.7,0-1.4,0-2.1
		c0-0.1,0-0.2,0-0.3c0.1-2.1,0.5-4.2,1.2-6.2c2-5.9,5.8-10.3,11.2-13.3c2.7-1.5,5.7-2.4,8.8-2.7C29.3,12.5,29.8,12.4,30.3,12.4z
		 M31.3,15.8c-11.2,0-20.4,9.1-20.4,20.4c0,11.2,9.2,20.4,20.4,20.4c11.2,0,20.4-9.2,20.4-20.4C51.7,25,42.6,15.8,31.3,15.8z"/>
	<circle class="st1" cx="31.3" cy="36.2" r="20.8"/>
	<path class="st0" d="M31.2,38.5c-0.5,0.6-1.1,1.1-1.6,1.7c-1.9,1.9-3.7,3.7-5.6,5.5c-1,1-2.5,0.6-2.9-0.7c-0.2-0.7,0-1.2,0.5-1.7
		c1.2-1.2,2.3-2.3,3.5-3.5c1.2-1.2,2.4-2.4,3.6-3.5c0,0,0.1-0.1,0.2-0.2c-0.2-0.2-0.4-0.4-0.6-0.5c-2.2-2.2-4.4-4.4-6.6-6.6
		c-0.5-0.5-0.7-1-0.5-1.7c0.3-1.2,1.8-1.7,2.7-0.9c0.1,0.1,0.2,0.2,0.2,0.2c2.3,2.3,4.6,4.6,6.9,6.9c0.1,0.1,0.1,0.1,0.2,0.2
		c0.1-0.1,0.2-0.2,0.2-0.2c2.4-2.3,4.7-4.7,7.1-7c0.7-0.7,1.7-0.8,2.3-0.2c0.8,0.7,0.8,1.8,0.1,2.6c-1.2,1.2-2.4,2.4-3.7,3.6
		c-1.2,1.1-2.3,2.3-3.5,3.4c-0.1,0.1-0.1,0.1-0.2,0.2c0.1,0.1,0.2,0.2,0.2,0.2c2.3,2.4,4.7,4.7,7,7.1c0.5,0.5,0.7,1.1,0.5,1.8
		c-0.4,1.2-1.9,1.6-2.8,0.7c-1.3-1.3-2.6-2.6-3.9-3.9c-1.1-1.1-2.2-2.2-3.3-3.3C31.4,38.6,31.4,38.6,31.2,38.5z"/>
</g>
</svg>
