<?xml version="1.0" encoding="utf-8"?>
<!-- Generator: Adobe Illustrator 21.1.0, SVG Export Plug-In . SVG Version: 6.00 Build 0)  -->
<svg version="1.1" id="Layer_1" xmlns="http://www.w3.org/2000/svg" xmlns:xlink="http://www.w3.org/1999/xlink" x="0px" y="0px"
	 viewBox="0 0 62.7 71.3" style="enable-background:new 0 0 62.7 71.3;" xml:space="preserve">
<style type="text/css">
	.st0{fill:#333333;}
</style>
<g>
	<path class="st0" d="M22.3,40.1c1.5,4.4,3,8.7,4.5,13c0.1,0,0.1,0,0.2,0c0.2-1.3,0.5-2.6,0.7-3.9c0.2-0.9,0.3-1.9,0.5-2.8
		c0-0.3,0-0.6-0.2-0.8c-1-1.1-1.1-2.2-0.4-3.6c0.5-0.9,0.4-1,1.4-1c1,0,2,0,3,0c0.5,0,0.8,0.2,0.9,0.7c0.2,0.6,0.4,1.2,0.6,1.8
		c0.1,0.2,0,0.5-0.1,0.7c0,0,0,0,0,0c-1,1.1-1.1,2.3-0.7,3.7c0.4,1.5,0.6,3.1,0.9,4.6c0,0.2,0.1,0.3,0.3,0.5c1.5-4.3,3-8.6,4.6-13.1
		c1.2,0.4,2.4,0.8,3.5,1.3c2.9,1.4,5.7,2.8,8.2,4.8c0.4,0.3,0.7,0.6,1.1,0.9c1.5,1.3,2.2,3,2.2,5c0,1-0.1,2,0,2.9
		c0,0.8-0.4,1.3-1,1.8c-2.3,1.5-4.9,2.6-7.5,3.3C39,61.7,33.1,62.4,27.2,62c-4.9-0.3-9.7-1.2-14.3-2.9c-1.7-0.6-3.2-1.5-4.7-2.5
		c-0.3-0.2-0.7-0.7-0.7-1.1c-0.1-1.6-0.1-3.2,0-4.8c0.1-1.5,1-2.6,2-3.6c1.7-1.6,3.7-2.9,5.7-4c1.7-0.9,3.5-1.7,5.2-2.5
		C21,40.4,21.6,40.3,22.3,40.1z"/>
	<path class="st0" d="M19.3,21.6c-0.1-0.7-0.2-1.4-0.3-2.1c-0.3-3.2,1.1-5.7,3.6-7.6c2-1.6,4.4-2.5,6.9-2.6c4-0.2,7.4,1.2,10,4.2
		c1.7,1.9,2.1,4.1,1.9,6.6c-0.1,0.5-0.1,1-0.2,1.6c0.3,0.1,0.5,0.1,0.8,0.2c0.8,0.2,1.1,0.6,1.2,1.4c0.1,1.4-0.2,2.7-0.8,4
		c-0.4,0.8-1,1.3-1.8,1.4c-0.4,0-0.5,0.2-0.6,0.6c-0.9,3.1-2.5,5.7-5.1,7.7c-2.9,2.2-6.3,2.2-9.1-0.1c-2.5-2-4.2-4.6-5-7.8
		c-0.1-0.3-0.2-0.4-0.5-0.4c-1-0.1-1.7-0.7-2.1-1.6c-0.5-1.1-0.7-2.3-0.7-3.6c0-1,0.3-1.4,1.3-1.6C18.9,21.7,19.1,21.6,19.3,21.6z"
		/>
</g>
</svg>
